<svg xmlns="http://www.w3.org/2000/svg" viewBox="0 0 40 40">
  <rect width="40" height="40" rx="5" fill="#0d1117"/>
  <!-- Face base -->
  <ellipse cx="20" cy="19" rx="10" ry="12" fill="#2a3545"/>
  <!-- Hair/head -->
  <path d="M12 14 Q13 7 20 7 Q27 7 28 14" fill="#1c2433" stroke="none"/>
  <!-- Borg implant above right brow -->
  <rect x="22" y="12" width="7" height="4" rx="1" fill="#0d1117" stroke="#00e5cc" stroke-width="0.6"/>
  <rect x="23" y="13" width="5" height="2" rx="0.3" fill="#00e5cc" opacity="0.6"/>
  <line x1="25" y1="12" x2="25" y2="16" stroke="#00b8a3" stroke-width="0.3"/>
  <!-- Eyes -->
  <ellipse cx="15" cy="18" rx="2.5" ry="1.8" fill="#1c2433"/>
  <ellipse cx="15" cy="18" rx="1.5" ry="1.2" fill="#3a4a5a"/>
  <ellipse cx="25" cy="18" rx="2.5" ry="1.8" fill="#1c2433"/>
  <ellipse cx="25" cy="18" rx="1.5" ry="1.2" fill="#3a4a5a"/>
  <!-- Pupils -->
  <circle cx="15" cy="18" r="0.7" fill="#00e5cc" opacity="0.8"/>
  <circle cx="25" cy="18" r="0.7" fill="#00e5cc" opacity="0.8"/>
  <!-- Brows -->
  <path d="M12.5 15.5 Q15 14.5 17.5 15.5" stroke="#4a6080" stroke-width="0.6" fill="none"/>
  <path d="M22.5 15.5 Q25 14.5 27.5 15.5" stroke="#4a6080" stroke-width="0.6" fill="none"/>
  <!-- Nose -->
  <path d="M19 21 L18.5 23.5 L21.5 23.5" stroke="#4a6080" stroke-width="0.5" fill="none"/>
  <!-- Lips -->
  <path d="M16 26 Q20 27.5 24 26" stroke="#4a6080" stroke-width="0.6" fill="none"/>
  <path d="M17 26.2 Q20 26.5 23 26.2" stroke="#6b80a0" stroke-width="0.4" fill="none" opacity="0.5"/>
  <!-- Right cheek implant dot -->
  <circle cx="27" cy="21" r="1" fill="#00e5cc" opacity="0.5"/>
  <circle cx="27" cy="21" r="0.4" fill="#00e5cc"/>
  <!-- Designation -->
  <text x="20" y="37.5" font-size="3.5" fill="#00e5cc" text-anchor="middle" font-family="monospace" opacity="0.8" letter-spacing="1">SEVEN</text>
</svg>
